<?xml version="1.0" encoding="UTF-8" standalone="no"?>
<svg
   xmlns:dc="http://purl.org/dc/elements/1.1/"
   xmlns:cc="http://creativecommons.org/ns#"
   xmlns:rdf="http://www.w3.org/1999/02/22-rdf-syntax-ns#"
   xmlns:svg="http://www.w3.org/2000/svg"
   xmlns="http://www.w3.org/2000/svg"
   xmlns:sodipodi="http://sodipodi.sourceforge.net/DTD/sodipodi-0.dtd"
   xmlns:inkscape="http://www.inkscape.org/namespaces/inkscape"
   data-name="Layer 1"
   viewBox="0 0 100.00033 100.025"
   x="0px"
   y="0px"
   version="1.1"
   id="svg12"
   sodipodi:docname="admin.svg"
   width="100.00033"
   height="100.025"
   inkscape:version="0.92.1 r">
  <metadata
     id="metadata18">
    <rdf:RDF>
      <cc:Work
         rdf:about="">
        <dc:format>image/svg+xml</dc:format>
        <dc:type
           rdf:resource="http://purl.org/dc/dcmitype/StillImage" />
        <dc:title>power</dc:title>
      </cc:Work>
    </rdf:RDF>
  </metadata>
  <defs
     id="defs16" />
  <sodipodi:namedview
     pagecolor="#ffffff"
     bordercolor="#666666"
     borderopacity="1"
     objecttolerance="10"
     gridtolerance="10"
     guidetolerance="10"
     inkscape:pageopacity="0"
     inkscape:pageshadow="2"
     inkscape:window-width="1366"
     inkscape:window-height="768"
     id="namedview14"
     showgrid="false"
     fit-margin-top="0"
     fit-margin-left="0"
     fit-margin-right="0"
     fit-margin-bottom="0"
     inkscape:zoom="1.888"
     inkscape:cx="50.000168"
     inkscape:cy="37.5"
     inkscape:window-x="0"
     inkscape:window-y="0"
     inkscape:window-maximized="1"
     inkscape:current-layer="svg12" />
  <title
     id="title2">power</title>
  <path
     d="m 50.000168,100.025 c -27.57,0 -50.00000003929,-22.18 -50.00000003929,-49.44 A 48.63,48.63 0 0 1 10.350168,20.465 a 7.1,7.1 0 0 1 9.88,-1.28 6.92,6.92 0 0 1 1.29,9.77 34.91,34.91 0 0 0 -7.43,21.62 35.91,35.91 0 0 0 71.82,0 34.91,34.91 0 0 0 -7.43,-21.62 6.92,6.92 0 0 1 1.29,-9.77 7.1,7.1 0 0 1 9.88,1.28 48.64,48.64 0 0 1 10.350002,30.12 c 0,27.26 -22.430002,49.44 -50.000002,49.44 z"
     id="path4"
     inkscape:connector-curvature="0" />
  <path
     d="m 48.630168,59.745 a 7,7 0 0 1 -7,-7 V 7.025 a 7.025,7.025 0 0 1 14.05,0 v 45.75 a 7,7 0 0 1 -7.05,6.97 z"
     id="path6"
     inkscape:connector-curvature="0" />
</svg>
