<?xml version="1.0" encoding="UTF-8" standalone="no"?>
<svg
   xmlns:dc="http://purl.org/dc/elements/1.1/"
   xmlns:cc="http://creativecommons.org/ns#"
   xmlns:rdf="http://www.w3.org/1999/02/22-rdf-syntax-ns#"
   xmlns:svg="http://www.w3.org/2000/svg"
   xmlns="http://www.w3.org/2000/svg"
   xmlns:sodipodi="http://sodipodi.sourceforge.net/DTD/sodipodi-0.dtd"
   xmlns:inkscape="http://www.inkscape.org/namespaces/inkscape"
   version="1.1"
   x="0px"
   y="0px"
   viewBox="0 0 50 62"
   xml:space="preserve"
   id="svg8"
   sodipodi:docname="configuration.svg"
   width="50"
   height="62"
   inkscape:version="0.92.1 r"><metadata
     id="metadata14"><rdf:RDF><cc:Work
         rdf:about=""><dc:format>image/svg+xml</dc:format><dc:type
           rdf:resource="http://purl.org/dc/dcmitype/StillImage" /><dc:title></dc:title></cc:Work></rdf:RDF></metadata><defs
     id="defs12" /><sodipodi:namedview
     pagecolor="#ffffff"
     bordercolor="#666666"
     borderopacity="1"
     objecttolerance="10"
     gridtolerance="10"
     guidetolerance="10"
     inkscape:pageopacity="0"
     inkscape:pageshadow="2"
     inkscape:window-width="1366"
     inkscape:window-height="768"
     id="namedview10"
     showgrid="false"
     fit-margin-top="0"
     fit-margin-left="0"
     fit-margin-right="0"
     fit-margin-bottom="0"
     inkscape:zoom="1.888"
     inkscape:cx="-64.512712"
     inkscape:cy="18.5"
     inkscape:window-x="0"
     inkscape:window-y="0"
     inkscape:window-maximized="1"
     inkscape:current-layer="svg8" /><path
     d="m 32,31 c 0,1.1 -0.9,2 -2,2 H 20 c -1.1,0 -2,-0.9 -2,-2 0,-1.1 0.9,-2 2,-2 h 10 c 1.1,0 2,0.9 2,2 z M 27,2 C 27,0.9 26.1,0 25,0 23.9,0 23,0.9 23,2 v 23 h 4 z m -4,58 c 0,1.1 0.9,2 2,2 1.1,0 2,-0.9 2,-2 V 37 H 23 Z M 45,2 C 45,0.9 44.1,0 43,0 41.9,0 41,0.9 41,2 v 40 h 4 z m -4,58 c 0,1.1 0.9,2 2,2 1.1,0 2,-0.9 2,-2 V 54 H 41 Z M 5,60 c 0,1.1 0.9,2 2,2 1.1,0 2,-0.9 2,-2 V 20 H 5 Z M 9,2 C 9,0.9 8.1,0 7,0 5.9,0 5,0.9 5,2 v 6 h 4 z m 3,10 H 2 c -1.1,0 -2,0.9 -2,2 0,1.1 0.9,2 2,2 h 10 c 1.1,0 2,-0.9 2,-2 0,-1.1 -0.9,-2 -2,-2 z M 48,46 H 38 c -1.1,0 -2,0.9 -2,2 0,1.1 0.9,2 2,2 h 10 c 1.1,0 2,-0.9 2,-2 0,-1.1 -0.9,-2 -2,-2 z"
     id="path2"
     inkscape:connector-curvature="0" /></svg>