<?xml version="1.0" encoding="UTF-8" standalone="no"?>
<svg
   xmlns:dc="http://purl.org/dc/elements/1.1/"
   xmlns:cc="http://creativecommons.org/ns#"
   xmlns:rdf="http://www.w3.org/1999/02/22-rdf-syntax-ns#"
   xmlns:svg="http://www.w3.org/2000/svg"
   xmlns="http://www.w3.org/2000/svg"
   xmlns:sodipodi="http://sodipodi.sourceforge.net/DTD/sodipodi-0.dtd"
   xmlns:inkscape="http://www.inkscape.org/namespaces/inkscape"
   viewBox="0 0 519.04102 596.49596"
   version="1.1"
   x="0px"
   y="0px"
   id="svg10"
   sodipodi:docname="keypad.svg"
   width="519.04102"
   height="596.49597"
   inkscape:version="0.92.1 r">
  <metadata
     id="metadata16">
    <rdf:RDF>
      <cc:Work
         rdf:about="">
        <dc:format>image/svg+xml</dc:format>
        <dc:type
           rdf:resource="http://purl.org/dc/dcmitype/StillImage" />
        <dc:title></dc:title>
      </cc:Work>
    </rdf:RDF>
  </metadata>
  <defs
     id="defs14" />
  <sodipodi:namedview
     pagecolor="#ffffff"
     bordercolor="#666666"
     borderopacity="1"
     objecttolerance="10"
     gridtolerance="10"
     guidetolerance="10"
     inkscape:pageopacity="0"
     inkscape:pageshadow="2"
     inkscape:window-width="1366"
     inkscape:window-height="768"
     id="namedview12"
     showgrid="false"
     fit-margin-top="0"
     fit-margin-left="0"
     fit-margin-right="0"
     fit-margin-bottom="0"
     inkscape:zoom="0.31651512"
     inkscape:cx="259.52051"
     inkscape:cy="223.686"
     inkscape:window-x="0"
     inkscape:window-y="0"
     inkscape:window-maximized="1"
     inkscape:current-layer="svg10" />
  <g
     transform="translate(-163.81255,-232.68934)"
     id="g4">
    <path
       style="fill:#000000"
       d="m 191.69155,232.68934 c -15.453,0 -27.879,12.547 -27.879,28 v 53.334 c 0,15.455 12.426,27.879 27.879,27.879 h 15.637 22.184 15.635 c 15.454,0 28.002,-12.424 28.002,-27.879 v -53.334 c 0,-15.453 -12.548,-28 -28.002,-28 h -15.635 -22.184 z m 184.003,0 c -15.452,0 -27.879,12.547 -27.879,28 v 53.334 c -0.07,15.455 12.427,27.879 27.879,27.879 h 15.517 22.303 15.515 c 15.454,0 28.001,-12.424 28.001,-27.879 v -53.334 c 0,-15.453 -12.547,-28 -28.001,-28 h -15.515 -22.303 z m 183.884,0 c -15.454,0 -27.881,12.547 -27.881,28 v 53.334 c 0,15.455 12.427,27.879 27.881,27.879 h 15.637 22.181 15.515 c 15.455,0 28.001,-12.424 28.001,-27.879 v -53.334 c 0,-15.453 -12.546,-28 -28.001,-28 h -15.515 -22.181 z m -183.763,170.306 c -15.577,0 -28,12.548 -28,28.001 v 53.334 c 0,5.648 1.756,10.991 4.486,15.273 v -32.001 h -0.122 c 0,-13.901 5.766,-27.111 15.757,-36.606 10.116,-9.744 23.49,-14.684 37.578,-13.94 26.935,1.365 47.758,24.609 47.758,52.97 v 28.244 c 2.296,-4.034 3.758,-8.851 3.758,-13.94 v -53.334 c 0,-15.453 -12.426,-28.001 -27.879,-28.001 z m -184.124,0.122 c -15.453,0 -27.879,12.426 -27.879,27.879 v 53.334 c 0,15.453 12.426,28.001 27.879,28.001 h 15.637 22.184 15.635 c 15.454,0 28.002,-12.548 28.002,-28.001 v -53.334 c 0,-15.453 -12.548,-27.879 -28.002,-27.879 h -15.635 -22.184 z m 367.887,0 c -15.454,0 -27.881,12.426 -27.881,27.879 v 53.334 c 0,15.453 12.427,28.001 27.881,28.001 h 15.637 22.181 15.515 c 15.455,0 28.001,-12.548 28.001,-28.001 v -53.334 c 0,-15.453 -12.546,-27.879 -28.001,-27.879 h -15.515 -22.181 z m -154.67,23.636 c -23.584,-1.241 -43.032,17.517 -43.032,40.728 v 169.943 77.334 l -45.696,-45.576 c -15.639,-15.639 -41.254,-17.922 -57.701,-3.151 -17.5,15.763 -18.021,42.706 -1.574,59.152 l 77.82,77.819 c 16.818,16.819 39.503,26.183 63.274,26.183 h 231.156 c 29.666,0 53.698,-24.032 53.698,-53.697 v -138.064 h -0.605 v -35.758 c 0,-19.923 -13.543,-38.22 -33.094,-41.82 -22.527,-4.034 -42.371,10.315 -47.273,30.547 -4.096,-18.247 -20.391,-31.88 -39.88,-31.88 -19.611,0 -35.968,13.932 -39.878,32.365 -3.911,-18.495 -20.265,-32.365 -40.002,-32.365 -18.183,0 -33.392,11.977 -38.666,28.486 v -117.094 c 0,-22.094 -16.515,-42.035 -38.547,-43.152 z m -213.217,146.669 c -15.39,0 -27.879,12.367 -27.879,27.759 v 53.576 c 0,15.392 12.489,27.88 27.879,27.88 h 45.455 c 2.545,-9.123 7.524,-17.425 14.91,-23.88 6.268,-5.585 13.459,-9.044 21.093,-11.03 v -46.546 c 0,-15.392 -12.548,-27.759 -28.002,-27.759 z"
       id="path2"
       inkscape:connector-curvature="0" />
  </g>
  <text
     x="5.6843419e-14"
     y="611.49597"
     font-size="5px"
     font-weight="bold"
     id="text6"
     style="font-weight:bold;font-size:5px;font-family:'Helvetica Neue', Helvetica, Arial-Unicode, Arial, Sans-serif;fill:#000000">Created by Hopkins</text>
  <text
     x="5.6843419e-14"
     y="616.49597"
     font-size="5px"
     font-weight="bold"
     id="text8"
     style="font-weight:bold;font-size:5px;font-family:'Helvetica Neue', Helvetica, Arial-Unicode, Arial, Sans-serif;fill:#000000">from the Noun Project</text>
</svg>
