<?xml version="1.0" encoding="UTF-8" standalone="no"?>
<svg
   xmlns:dc="http://purl.org/dc/elements/1.1/"
   xmlns:cc="http://creativecommons.org/ns#"
   xmlns:rdf="http://www.w3.org/1999/02/22-rdf-syntax-ns#"
   xmlns:svg="http://www.w3.org/2000/svg"
   xmlns="http://www.w3.org/2000/svg"
   xmlns:sodipodi="http://sodipodi.sourceforge.net/DTD/sodipodi-0.dtd"
   xmlns:inkscape="http://www.inkscape.org/namespaces/inkscape"
   data-name="Layer 1"
   viewBox="0 0 96 96"
   x="0px"
   y="0px"
   version="1.1"
   id="svg12"
   sodipodi:docname="receivesvg.svg"
   width="96"
   height="96"
   inkscape:version="0.92.1 r">
  <metadata
     id="metadata18">
    <rdf:RDF>
      <cc:Work
         rdf:about="">
        <dc:format>image/svg+xml</dc:format>
        <dc:type
           rdf:resource="http://purl.org/dc/dcmitype/StillImage" />
        <dc:title>music-base</dc:title>
      </cc:Work>
    </rdf:RDF>
  </metadata>
  <defs
     id="defs16" />
  <sodipodi:namedview
     pagecolor="#ffffff"
     bordercolor="#666666"
     borderopacity="1"
     objecttolerance="10"
     gridtolerance="10"
     guidetolerance="10"
     inkscape:pageopacity="0"
     inkscape:pageshadow="2"
     inkscape:window-width="1366"
     inkscape:window-height="768"
     id="namedview14"
     showgrid="false"
     fit-margin-top="0"
     fit-margin-left="0"
     fit-margin-right="0"
     fit-margin-bottom="0"
     inkscape:zoom="1.888"
     inkscape:cx="48"
     inkscape:cy="35"
     inkscape:window-x="0"
     inkscape:window-y="0"
     inkscape:window-maximized="1"
     inkscape:current-layer="svg12" />
  <title
     id="title2">music-base</title>
  <path
     d="m 33.52,43.67 h -8.33 v 8.66 h 8.33 a 1.6,1.6 0 0 1 1,0.39 l 9.33,8.1 V 35.18 l -9.33,8.1 a 1.6,1.6 0 0 1 -1,0.39 z"
     id="path4"
     inkscape:connector-curvature="0"
     style="fill:#00ff00;fill-opacity:1" />
  <path
     d="M 48,0 A 48,48 0 1 0 96,48 48,48 0 0 0 48,0 Z M 47.08,64.31 A 1.59,1.59 0 0 1 44.44,65.5 L 32.92,55.5 H 23.59 A 1.59,1.59 0 0 1 22,53.92 V 42.08 a 1.59,1.59 0 0 1 1.59,-1.58 h 9.33 l 11.52,-10 a 1.59,1.59 0 0 1 2.64,1.2 z m 5.33,-9.45 a 1.59,1.59 0 0 1 -0.63,-3.05 4,4 0 0 0 2.43,-3.7 v -0.23 a 4,4 0 0 0 -2.46,-3.71 1.5927492,1.5927492 0 1 1 1.25,-2.93 7.54,7.54 0 0 1 4.41,6.88 v 0 A 7.21,7.21 0 0 1 53,54.74 1.58,1.58 0 0 1 52.41,54.87 Z m 3.49,7.49 a 1.59,1.59 0 0 1 -0.66,-3 12.47,12.47 0 0 0 7.27,-11.3 v 0 a 12.48,12.48 0 0 0 -7.27,-11.32 1.5952194,1.5952194 0 0 1 1.33,-2.9 15.68,15.68 0 0 1 9.13,14.18 c 0,0 0,0 0,0 A 15.66,15.66 0 0 1 56.57,62.23 1.57,1.57 0 0 1 55.9,62.36 Z M 74,48.26 a 24.13,24.13 0 0 1 -13.93,21.45 1.5927727,1.5927727 0 1 1 -1.34,-2.89 20.7,20.7 0 0 0 0,-37.64 1.5927727,1.5927727 0 1 1 1.34,-2.89 A 24.13,24.13 0 0 1 74,47.75 c 0,0 0,0.46 0,0.51 z"
     id="path6"
     inkscape:connector-curvature="0"
     style="fill:#00ff00;fill-opacity:1" />
</svg>
