<?xml version="1.0" encoding="UTF-8" standalone="no"?>
<svg
   xmlns:dc="http://purl.org/dc/elements/1.1/"
   xmlns:cc="http://creativecommons.org/ns#"
   xmlns:rdf="http://www.w3.org/1999/02/22-rdf-syntax-ns#"
   xmlns:svg="http://www.w3.org/2000/svg"
   xmlns="http://www.w3.org/2000/svg"
   xmlns:sodipodi="http://sodipodi.sourceforge.net/DTD/sodipodi-0.dtd"
   xmlns:inkscape="http://www.inkscape.org/namespaces/inkscape"
   version="1.1"
   x="0px"
   y="0px"
   viewBox="0 0 96 96"
   xml:space="preserve"
   id="svg10"
   sodipodi:docname="transmit.svg"
   width="96"
   height="96"
   inkscape:version="0.92.1 r"><metadata
     id="metadata16"><rdf:RDF><cc:Work
         rdf:about=""><dc:format>image/svg+xml</dc:format><dc:type
           rdf:resource="http://purl.org/dc/dcmitype/StillImage" /><dc:title></dc:title></cc:Work></rdf:RDF></metadata><defs
     id="defs14" /><sodipodi:namedview
     pagecolor="#ffffff"
     bordercolor="#666666"
     borderopacity="1"
     objecttolerance="10"
     gridtolerance="10"
     guidetolerance="10"
     inkscape:pageopacity="0"
     inkscape:pageshadow="2"
     inkscape:window-width="1366"
     inkscape:window-height="768"
     id="namedview12"
     showgrid="false"
     fit-margin-top="0"
     fit-margin-left="0"
     fit-margin-right="0"
     fit-margin-bottom="0"
     inkscape:zoom="1.888"
     inkscape:cx="-41.512712"
     inkscape:cy="35.6"
     inkscape:window-x="0"
     inkscape:window-y="0"
     inkscape:window-maximized="1"
     inkscape:current-layer="svg10" /><style
     type="text/css"
     id="style2">
	.st0{fill:none;stroke:#000000;stroke-width:3;stroke-linecap:round;stroke-linejoin:round;stroke-miterlimit:10;}
	.st1{fill:none;stroke:#000000;stroke-linecap:round;stroke-linejoin:round;stroke-miterlimit:10;}
	.st2{fill:none;stroke:#000000;stroke-width:3;stroke-linejoin:round;stroke-miterlimit:10;}
	.st3{fill:none;stroke:#000000;stroke-miterlimit:10;}
	.st4{fill:none;stroke:#000000;stroke-width:1.5;stroke-linecap:round;stroke-linejoin:round;stroke-miterlimit:10;}
</style><path
     d="M 48,0 C 21.5,0 0,21.5 0,48 0,74.5 21.5,96 48,96 74.5,96 96,74.5 96,48 96,21.5 74.5,0 48,0 Z M 31.4,63.6 29.9,65 c -0.1,0.1 -0.2,0.2 -0.4,0.2 -0.1,0 -0.3,-0.1 -0.4,-0.2 -4.5,-4.6 -7,-10.7 -7,-17 0,-6.4 2.5,-12.3 7,-17 0.1,-0.1 0.3,-0.2 0.4,-0.2 0.2,0 0.4,0.1 0.4,0.2 l 1.5,1.4 c 0.2,0.3 0.2,0.6 0,0.9 -3.8,3.9 -6.1,9 -6.1,14.7 0,5.6 2.2,10.8 6.1,14.7 0.2,0.3 0.2,0.7 0,0.9 z m 5,-3.9 -1.4,1.6 c -0.1,0.1 -0.3,0.1 -0.4,0.1 -0.2,0 -0.4,0 -0.4,-0.1 -3.7,-3.7 -5.5,-8.4 -5.5,-13.2 0,-4.7 1.8,-9.5 5.5,-13.2 0.1,-0.1 0.2,-0.1 0.4,-0.1 0.1,0 0.3,0.1 0.4,0.1 l 1.4,1.5 c 0.1,0.1 0.2,0.3 0.2,0.4 0,0.1 -0.1,0.3 -0.2,0.4 -2.8,2.9 -4.4,6.7 -4.4,10.8 0,4.1 1.6,7.9 4.5,10.8 0.2,0.4 0.2,0.7 -0.1,0.9 z M 41.5,55 c 0.1,0.1 0.2,0.3 0.2,0.4 0,0.1 -0.1,0.3 -0.2,0.4 l -1.4,1.4 c -0.1,0.1 -0.3,0.2 -0.4,0.2 -0.1,0 -0.4,-0.1 -0.4,-0.2 -2.5,-2.5 -3.9,-5.8 -3.9,-9.3 0,-3.5 1.4,-6.9 3.9,-9.3 0.1,-0.1 0.3,-0.2 0.4,-0.2 0.1,0 0.3,0.1 0.4,0.2 l 1.4,1.4 c 0.3,0.3 0.3,0.7 0,0.9 -1.9,1.9 -2.8,4.5 -2.8,7 -0.1,2.7 0.9,5.2 2.8,7.1 z m 6.4,-2.1 c -2.6,0 -4.8,-2.1 -4.8,-4.8 0,-2.7 2.1,-4.8 4.8,-4.8 2.7,0 4.8,2.1 4.8,4.8 0,2.7 -2.2,4.8 -4.8,4.8 z m 8.5,4.7 c -0.1,0 -0.3,-0.1 -0.4,-0.2 l -1.5,-1.5 c -0.1,-0.1 -0.2,-0.3 -0.2,-0.4 0,-0.1 0.1,-0.4 0.2,-0.4 1.9,-2 2.9,-4.4 2.8,-7 0,-2.5 -0.9,-5.1 -2.8,-7 -0.3,-0.2 -0.3,-0.6 0,-0.9 l 1.4,-1.4 c 0.1,-0.1 0.3,-0.2 0.4,-0.2 0.1,0 0.4,0.1 0.4,0.2 2.5,2.5 3.9,5.8 3.9,9.3 0,3.5 -1.4,6.9 -3.9,9.3 0,0.1 -0.2,0.2 -0.3,0.2 z m 5,3.8 c -0.1,0 -0.3,0 -0.4,-0.1 l -1.4,-1.5 c -0.2,-0.2 -0.2,-0.6 0,-0.9 2.9,-2.9 4.5,-6.7 4.5,-10.8 0,-4.1 -1.6,-7.9 -4.5,-10.8 -0.1,-0.1 -0.2,-0.3 -0.2,-0.4 0,-0.1 0.1,-0.4 0.2,-0.4 L 61,35 c 0.1,-0.1 0.3,-0.1 0.4,-0.1 0.2,0 0.4,0.1 0.4,0.1 3.7,3.7 5.5,8.5 5.5,13.2 0,4.8 -1.8,9.5 -5.5,13.2 0,0 -0.1,0 -0.4,0 z m 5.6,3.7 c -0.1,0.1 -0.3,0.2 -0.4,0.2 -0.2,0 -0.4,-0.1 -0.4,-0.2 l -1.5,-1.4 c -0.2,-0.2 -0.2,-0.6 0,-0.9 3.9,-3.9 6.1,-9.2 6.1,-14.7 0,-5.7 -2.2,-10.8 -6.1,-14.7 -0.2,-0.2 -0.2,-0.6 0,-0.9 l 1.5,-1.4 c 0.1,-0.1 0.2,-0.2 0.4,-0.2 0.1,0 0.3,0.1 0.4,0.2 4.5,4.7 7,10.6 7,17 0,6.3 -2.5,12.4 -7,17 z"
     id="path4"
     inkscape:connector-curvature="0"
     style="fill:#ff0000;fill-opacity:1" /></svg>